IKResults
version=1
nRows=9
nColumns=67
inDegrees=yes

Units are S.I. units (second, meters, Newtons, ...)
Angles are in degrees.

endheader
time	pelvis_tilt	pelvis_list	pelvis_rotation	pelvis_tx	pelvis_ty	pelvis_tz	hip_flexion_r	hip_adduction_r	hip_rotation_r	knee_angle_r	knee_rot_r	knee_adduc_r	ankle_angle_r	ankle_rot_r	ankle_add_r	subtalar_angle_r	mtp_angle_r	mtp_rot_r	mtp_add_r	hip_flexion_l	hip_adduction_l	hip_rotation_l	knee_angle_l	knee_rot_l	knee_adduc_l	ankle_angle_l	ankle_rot_l	ankle_add_l	subtalar_angle_l	mtp_angle_l	mtp_rot_l	mtp_add_l	lumbar_extension	lumbar_bending	lumbar_rotation	neck_flexion	neck_lateral_bending	neck_rotation	arm_flex_r	arm_add_r	arm_rot_r	elbow_flex_r	elbow_rot_r	elbow_add_r	pro_sup_r	wrist_flex_r	wrist_adduc_r	wrist_rot_r	wrist_dev_r	hand_finger_flex_r	hand_finger_adduc_r	hand_finger_rot_r	arm_flex_l	arm_add_l	arm_rot_l	elbow_flex_l	elbow_rot_l	elbow_add_l	pro_sup_l	wrist_flex_l	wrist_adduc_l	wrist_rot_l	wrist_dev_l	hand_finger_flex_l	hand_finger_adduc_l	hand_finger_rot_l
      1.62500000	     14.79337226	     13.58031129	      5.39143059	     -0.40859314	      0.73740133	      0.88707340	     11.70477215	    -15.55480913	      2.19617788	     -3.79481690	     -5.00000000	      1.00063760	      0.45249450	     -4.42329619	      5.00000000	     -5.94145517	     21.80686811	     -1.47893134	      1.59446598	    -32.48167378	     13.54625089	     12.41472542	     -4.84465991	      3.62707119	      1.57318957	     15.44184337	     -5.00000000	      5.00000000	     -1.75607442	     19.22596683	      1.77912595	      2.00000000	    -35.28598396	    -11.06898674	    -12.19138189	      0.00000000	      0.00000000	      0.00000000	      0.00000000	      0.00000000	      0.00000000	      0.00000000	      0.00000000	      0.00000000	     -0.00042092	      0.00000000	      0.00000000	      0.00000000	      0.00000000	      0.00000000	      0.00000000	      0.00000000	      0.00000000	      0.00000000	      0.00000000	      0.00000000	      0.00000000	      0.00000000	      0.00000000	      0.00000000	      0.00000000	      0.00000000	      0.00000000	      0.00000000	      0.00000000	      0.00000000
      1.63000000	     15.21936167	     13.71938603	      5.87454791	     -0.40173871	      0.73642650	      0.88677027	     10.97850641	    -15.86101084	      1.58555950	     -2.88574987	     -5.00000000	      1.09957451	      1.31761001	     -5.00000000	      5.00000000	     -5.71655237	     21.80414515	     -1.46312405	      1.58971697	    -33.51681243	     13.10127432	     12.79045427	     -5.02011907	      3.21345120	      1.43607632	     15.91492120	     -4.99443242	      5.00000000	     -1.24013451	     19.19828867	      1.75617743	      2.00000000	    -35.71480439	    -10.65843218	    -12.94315631	      0.00000000	      0.00000000	      0.00000000	      0.00000000	      0.00000000	      0.00000000	      0.00000000	      0.00000000	      0.00000000	     -0.00042092	      0.00000000	      0.00000000	      0.00000000	      0.00000000	      0.00000000	      0.00000000	      0.00000000	      0.00000000	      0.00000000	      0.00000000	      0.00000000	      0.00000000	      0.00000000	      0.00000000	      0.00000000	      0.00000000	      0.00000000	      0.00000000	      0.00000000	      0.00000000	      0.00000000
      1.63500000	     15.18551302	     13.85475778	      6.11823358	     -0.39514250	      0.73497483	      0.88692651	     11.23098766	    -16.02505257	      1.56683131	     -2.70649189	     -5.00000000	      1.00368967	      1.40868329	     -5.00000000	      5.00000000	     -5.66502942	     21.80241288	     -1.45987763	      1.58822715	    -34.01238289	     12.90404423	     12.73475156	     -5.12646308	      3.24873831	      1.37709811	     15.97105725	     -5.00000000	      5.00000000	     -1.22552792	     19.19598560	      1.75519835	      2.00000000	    -35.76354371	    -10.59639060	    -12.90667809	      0.00000000	      0.00000000	      0.00000000	      0.00000000	      0.00000000	      0.00000000	      0.00000000	      0.00000000	      0.00000000	     -0.00042092	      0.00000000	      0.00000000	      0.00000000	      0.00000000	      0.00000000	      0.00000000	      0.00000000	      0.00000000	      0.00000000	      0.00000000	      0.00000000	      0.00000000	      0.00000000	      0.00000000	      0.00000000	      0.00000000	      0.00000000	      0.00000000	      0.00000000	      0.00000000	      0.00000000
      1.64000000	     15.78715401	     13.84944272	      6.60032653	     -0.38810924	      0.73419214	      0.88687526	     10.51854190	    -16.14504325	      0.55391307	     -2.65178712	     -5.00000000	      1.18238159	      3.29384806	     -5.00000000	      5.00000000	     -5.25161560	     21.77347737	     -1.43672542	      1.57032820	    -35.26042352	     12.20806324	     12.81900575	     -5.16271327	      2.91642322	      1.25024849	     16.45105753	     -5.00000000	      5.00000000	     -0.59259671	     19.17835305	      1.72942493	      2.00000000	    -36.37055884	    -10.12385348	    -13.46356983	      0.00000000	      0.00000000	      0.00000000	      0.00000000	      0.00000000	      0.00000000	      0.00000000	      0.00000000	      0.00000000	     -0.00042092	      0.00000000	      0.00000000	      0.00000000	      0.00000000	      0.00000000	      0.00000000	      0.00000000	      0.00000000	      0.00000000	      0.00000000	      0.00000000	      0.00000000	      0.00000000	      0.00000000	      0.00000000	      0.00000000	      0.00000000	      0.00000000	      0.00000000	      0.00000000	      0.00000000
      1.64500000	     15.81363704	     13.92570947	      6.68216765	     -0.38105017	      0.73282093	      0.88700284	     10.73204575	    -16.23762510	      0.50704872	     -2.82250777	     -5.00000000	      1.15357745	      3.29152765	     -5.00000000	      5.00000000	     -5.22930143	     21.76800381	     -1.43500465	      1.56753974	    -35.79415109	     12.04623759	     12.83360198	     -5.36150829	      2.88780562	      1.19826821	     16.45533577	     -5.00000000	      4.99325658	     -0.54138523	     19.17816251	      1.72770648	      2.00000000	    -36.22572065	    -10.02895789	    -13.44478785	      0.00000000	      0.00000000	      0.00000000	      0.00000000	      0.00000000	      0.00000000	      0.00000000	      0.00000000	      0.00000000	     -0.00042092	      0.00000000	      0.00000000	      0.00000000	      0.00000000	      0.00000000	      0.00000000	      0.00000000	      0.00000000	      0.00000000	      0.00000000	      0.00000000	      0.00000000	      0.00000000	      0.00000000	      0.00000000	      0.00000000	      0.00000000	      0.00000000	      0.00000000	      0.00000000	      0.00000000
      1.65000000	     15.97423002	     13.82903561	      6.88680680	     -0.37428979	      0.73162090	      0.88713219	     11.21163154	    -16.28726843	      0.13755463	     -4.05575169	     -5.00000000	      1.46865541	      3.59056701	     -5.00000000	      5.00000000	     -5.18613541	     21.75217565	     -1.43320473	      1.56018985	    -36.56351817	     11.52180269	     12.95861164	     -5.25202549	      2.65573572	      1.05266468	     16.54122336	     -4.99995708	      4.91589750	     -0.28001420	     19.18127531	      1.72023957	      2.00000000	    -36.43346652	     -9.66776494	    -13.48139747	      0.00000000	      0.00000000	      0.00000000	      0.00000000	      0.00000000	      0.00000000	      0.00000000	      0.00000000	      0.00000000	     -0.00042092	      0.00000000	      0.00000000	      0.00000000	      0.00000000	      0.00000000	      0.00000000	      0.00000000	      0.00000000	      0.00000000	      0.00000000	      0.00000000	      0.00000000	      0.00000000	      0.00000000	      0.00000000	      0.00000000	      0.00000000	      0.00000000	      0.00000000	      0.00000000	      0.00000000
      1.65500000	     16.44416116	     13.65599515	      7.15096514	     -0.36692536	      0.73069445	      0.88730849	     11.08840697	    -16.16362247	     -0.74078705	     -5.18471769	     -5.00000000	      1.63737351	      5.47554734	     -5.00000000	      5.00000000	     -4.73381900	     21.67890036	     -1.40553308	      1.52181564	    -37.58556316	     10.81863888	     12.59377349	     -5.36049237	      2.43567736	      0.95089053	     16.88141525	     -5.00000000	      4.75509999	      0.29630805	     19.20317657	      1.70650419	      1.99282539	    -36.72047646	     -9.17878587	    -13.69912234	      0.00000000	      0.00000000	      0.00000000	      0.00000000	      0.00000000	      0.00000000	      0.00000000	      0.00000000	      0.00000000	     -0.00042092	      0.00000000	      0.00000000	      0.00000000	      0.00000000	      0.00000000	      0.00000000	      0.00000000	      0.00000000	      0.00000000	      0.00000000	      0.00000000	      0.00000000	      0.00000000	      0.00000000	      0.00000000	      0.00000000	      0.00000000	      0.00000000	      0.00000000	      0.00000000	      0.00000000
      1.66000000	     16.60268162	     13.56189863	      7.31478103	     -0.35981447	      0.72954151	      0.88737757	     11.48705583	    -16.15903063	     -0.94277563	     -6.53924059	     -5.00000000	      1.81716667	      5.32481801	     -5.00000000	      5.00000000	     -4.63081589	     21.65032038	     -1.39751895	      1.50746813	    -38.26197978	     10.43654034	     12.66210017	     -5.49588194	      2.25798728	      0.98712440	     16.84508976	     -4.99965529	      4.69758240	      0.51300721	     19.20952143	      1.70122765	      1.99100209	    -36.76511482	     -8.82061531	    -13.69302529	      0.00000000	      0.00000000	      0.00000000	      0.00000000	      0.00000000	      0.00000000	      0.00000000	      0.00000000	      0.00000000	     -0.00042092	      0.00000000	      0.00000000	      0.00000000	      0.00000000	      0.00000000	      0.00000000	      0.00000000	      0.00000000	      0.00000000	      0.00000000	      0.00000000	      0.00000000	      0.00000000	      0.00000000	      0.00000000	      0.00000000	      0.00000000	      0.00000000	      0.00000000	      0.00000000	      0.00000000
      1.66500000	     16.89558582	     13.34071124	      7.35434016	     -0.35224689	      0.72841635	      0.88781629	     11.76532470	    -15.93879156	     -1.75940118	     -8.09327205	     -5.00000000	      1.92290777	      6.00878036	     -5.00000000	      5.00000000	     -3.98945572	     21.52140859	     -1.34674335	      1.43946133	    -39.11704016	      9.84448590	     12.00358555	     -5.50772575	      2.10747760	      0.87231635	     17.01427606	     -4.95494130	      4.43516876	      1.10865543	     19.26313005	      1.69368291	      1.96831583	    -36.80859228	     -8.47105988	    -13.71807900	      0.00000000	      0.00000000	      0.00000000	      0.00000000	      0.00000000	      0.00000000	      0.00000000	      0.00000000	      0.00000000	     -0.00042092	      0.00000000	      0.00000000	      0.00000000	      0.00000000	      0.00000000	      0.00000000	      0.00000000	      0.00000000	      0.00000000	      0.00000000	      0.00000000	      0.00000000	      0.00000000	      0.00000000	      0.00000000	      0.00000000	      0.00000000	      0.00000000	      0.00000000	      0.00000000	      0.00000000
